# xmcd
#
# Track frame offsets: 
#        150
#        22688
#        40424
#        54587
#        68641
#        83390
#        99145
#        119811
#        136124
#        149670
#        164796
#        176961
#        185288
#        202726
#        217754
#        242504
#        251841
#        263448
#        288028
#        304487
#        330061
#
# Disc length: 4572 seconds
#
# Revision: 1
# Processed by: cddbd v1.5.2PL0 Copyright (c) Steve Scherf et al.
# Submitted via: ExactAudioCopy v1.3
#
DISCID=1c11da15
DTITLE=Ahmad Jamal Trio - Ahmad Jamal Trio - The Pershing Lounge and Spo
DTITLE=tlite Club Performances cd3
DYEAR=1958
DGENRE=Jazz
TTITLE0=This can't be love
TTITLE1=Ole devil moon
TTITLE2=Ivy
TTITLE3=Tater pie
TTITLE4=Aki and ukthay (brother and sister)
TTITLE5=You don't know what love is
TTITLE6=I didn't know what time it was
TTITLE7=So beats my heart for you
TTITLE8=Our delight
TTITLE9=Soft winds (bonus track)
TTITLE10=Secret love (bonus track)
TTITLE11=Taking a chance on love (bonus track)
TTITLE12=Volga boatman (bonus track)
TTITLE13=On Green Dolphin Street (bonus track)
TTITLE14=How about you (bonus track)
TTITLE15=I just can't see for lookin' (bonus track)
TTITLE16=Spring will be a little late this year (bonus track)
TTITLE17=Beat out one (bonus track)
TTITLE18=Maryam (bonus track)
TTITLE19=Easy to remember (bonus track)
TTITLE20=Jim loves Sue (bonus track)
EXTD=YEAR: 1958
EXTT0=
EXTT1=
EXTT2=
EXTT3=
EXTT4=
EXTT5=
EXTT6=
EXTT7=
EXTT8=
EXTT9=
EXTT10=
EXTT11=
EXTT12=
EXTT13=
EXTT14=
EXTT15=
EXTT16=
EXTT17=
EXTT18=
EXTT19=
EXTT20=
PLAYORDER=
